<mxfile host="65bd71144e">
    <diagram id="_HrGRLVCGVn3hehfQWW7" name="StaffList">
        <mxGraphModel dx="2807" dy="4637" grid="1" gridSize="12" guides="1" tooltips="1" connect="1" arrows="1" fold="1" page="1" pageScale="1" pageWidth="1200" pageHeight="1920" background="#ffffff" math="0" shadow="0">
            <root>
                <mxCell id="0"/>
                <mxCell id="1" parent="0"/>
                <mxCell id="59" value="" style="rounded=0;whiteSpace=wrap;html=1;fontSize=21;fontColor=none;strokeColor=#000000;fillColor=#6666FF;noLabel=1;" parent="1" vertex="1">
                    <mxGeometry x="3" y="-1920" width="1185" height="96" as="geometry"/>
                </mxCell>
                <mxCell id="2" value="" style="endArrow=none;html=1;" parent="1" edge="1">
                    <mxGeometry width="50" height="50" relative="1" as="geometry">
                        <mxPoint y="80" as="sourcePoint"/>
                        <mxPoint x="850" y="80" as="targetPoint"/>
                    </mxGeometry>
                </mxCell>
                <mxCell id="3" value="" style="shape=link;html=1;" parent="1" edge="1">
                    <mxGeometry width="100" relative="1" as="geometry">
                        <mxPoint x="260" y="180" as="sourcePoint"/>
                        <mxPoint x="850" y="80" as="targetPoint"/>
                    </mxGeometry>
                </mxCell>
                <mxCell id="4" value="" style="endArrow=none;html=1;strokeWidth=6;fillColor=#fa6800;strokeColor=#000000;" parent="1" edge="1">
                    <mxGeometry width="50" height="50" relative="1" as="geometry">
                        <mxPoint x="12" y="-1824" as="sourcePoint"/>
                        <mxPoint x="1188" y="-1824" as="targetPoint"/>
                    </mxGeometry>
                </mxCell>
                <mxCell id="5" value="sadsdasdasd" style="rounded=1;whiteSpace=wrap;html=1;strokeColor=#000000;fillColor=#FFFFFF;" parent="1" vertex="1">
                    <mxGeometry x="72" y="-1908" width="120" height="60" as="geometry"/>
                </mxCell>
                <mxCell id="6" value="Text" style="text;html=1;resizable=0;autosize=1;align=center;verticalAlign=middle;points=[];fillColor=none;strokeColor=none;rounded=0;" parent="1" vertex="1">
                    <mxGeometry x="1488" y="-1644" width="40" height="20" as="geometry"/>
                </mxCell>
                <mxCell id="7" value="LOGO" style="text;html=1;strokeColor=none;fillColor=none;align=center;verticalAlign=middle;whiteSpace=wrap;rounded=0;fontColor=#000000;fontSize=24;" parent="1" vertex="1">
                    <mxGeometry x="102" y="-1893" width="60" height="30" as="geometry"/>
                </mxCell>
                <mxCell id="9" value="" style="rounded=1;whiteSpace=wrap;html=1;strokeColor=#000000;fillColor=#B3B3B3;" parent="1" vertex="1">
                    <mxGeometry x="240" y="-1908" width="120" height="60" as="geometry"/>
                </mxCell>
                <mxCell id="10" value="sadsdasdasd" style="rounded=1;whiteSpace=wrap;html=1;strokeColor=#000000;fillColor=#FFFFFF;" parent="1" vertex="1">
                    <mxGeometry x="384" y="-1908" width="120" height="60" as="geometry"/>
                </mxCell>
                <mxCell id="11" value="sadsdasdasd" style="rounded=1;whiteSpace=wrap;html=1;strokeColor=#000000;fillColor=#FFFFFF;" parent="1" vertex="1">
                    <mxGeometry x="528" y="-1908" width="144" height="60" as="geometry"/>
                </mxCell>
                <mxCell id="12" value="sadsdasdasd" style="rounded=1;whiteSpace=wrap;html=1;strokeColor=#000000;fillColor=#FFFFFF;" parent="1" vertex="1">
                    <mxGeometry x="768" y="-1800" width="240" height="60" as="geometry"/>
                </mxCell>
                <mxCell id="13" value="" style="rounded=1;whiteSpace=wrap;html=1;strokeColor=#000000;fillColor=#00CCCC;" parent="1" vertex="1">
                    <mxGeometry x="1008" y="-1800" width="120" height="60" as="geometry"/>
                </mxCell>
                <mxCell id="14" value="" style="endArrow=none;html=1;strokeWidth=6;fillColor=#fa6800;strokeColor=#000000;" parent="1" edge="1">
                    <mxGeometry width="50" height="50" relative="1" as="geometry">
                        <mxPoint x="12" y="-1584" as="sourcePoint"/>
                        <mxPoint x="1188" y="-1584" as="targetPoint"/>
                    </mxGeometry>
                </mxCell>
                <mxCell id="16" value="Nhân Viên" style="text;html=1;strokeColor=none;fillColor=none;align=center;verticalAlign=middle;whiteSpace=wrap;rounded=0;fontColor=#000000;fontSize=24;" parent="1" vertex="1">
                    <mxGeometry x="237" y="-1896" width="126" height="30" as="geometry"/>
                </mxCell>
                <mxCell id="17" value="&amp;nbsp;Phòng ban" style="text;html=1;strokeColor=none;fillColor=none;align=center;verticalAlign=middle;whiteSpace=wrap;rounded=0;fontColor=#000000;fontSize=24;" parent="1" vertex="1">
                    <mxGeometry x="378" y="-1893" width="126" height="30" as="geometry"/>
                </mxCell>
                <mxCell id="18" value="&amp;nbsp;Bảng lương" style="text;html=1;strokeColor=none;fillColor=none;align=center;verticalAlign=middle;whiteSpace=wrap;rounded=0;fontColor=#000000;fontSize=24;" parent="1" vertex="1">
                    <mxGeometry x="510" y="-1893" width="162" height="30" as="geometry"/>
                </mxCell>
                <mxCell id="19" value="Nhập tên tìm kiếm" style="text;html=1;strokeColor=none;fillColor=none;align=center;verticalAlign=middle;whiteSpace=wrap;rounded=0;fontColor=#000000;fontSize=24;" parent="1" vertex="1">
                    <mxGeometry x="792" y="-1785" width="204" height="30" as="geometry"/>
                </mxCell>
                <mxCell id="20" value="Search" style="text;html=1;strokeColor=none;fillColor=none;align=center;verticalAlign=middle;whiteSpace=wrap;rounded=0;fontColor=#FFFFFF;fontSize=24;" parent="1" vertex="1">
                    <mxGeometry x="987" y="-1785" width="162" height="30" as="geometry"/>
                </mxCell>
                <mxCell id="21" value="&amp;nbsp;Nhân viên" style="text;html=1;strokeColor=none;fillColor=none;align=center;verticalAlign=middle;whiteSpace=wrap;rounded=0;fontSize=43;fontColor=#000000;fontStyle=1" parent="1" vertex="1">
                    <mxGeometry x="348" y="-1654" width="348" height="30" as="geometry"/>
                </mxCell>
                <mxCell id="22" value="" style="rounded=0;whiteSpace=wrap;html=1;fontSize=43;fontColor=#000000;strokeColor=#000000;fillColor=#00CCCC;" parent="1" vertex="1">
                    <mxGeometry x="42" y="-1536" width="150" height="144" as="geometry"/>
                </mxCell>
                <mxCell id="23" value="" style="rounded=0;whiteSpace=wrap;html=1;fontSize=43;fontColor=#000000;strokeColor=#000000;fillColor=#00CCCC;" parent="1" vertex="1">
                    <mxGeometry x="234" y="-1536" width="150" height="144" as="geometry"/>
                </mxCell>
                <mxCell id="24" value="" style="rounded=0;whiteSpace=wrap;html=1;fontSize=43;fontColor=#000000;strokeColor=#000000;fillColor=#00CCCC;" parent="1" vertex="1">
                    <mxGeometry x="432" y="-1536" width="150" height="144" as="geometry"/>
                </mxCell>
                <mxCell id="25" value="" style="rounded=0;whiteSpace=wrap;html=1;fontSize=43;fontColor=#000000;strokeColor=#000000;fillColor=#00CCCC;" parent="1" vertex="1">
                    <mxGeometry x="624" y="-1536" width="150" height="144" as="geometry"/>
                </mxCell>
                <mxCell id="26" value="" style="rounded=0;whiteSpace=wrap;html=1;fontSize=43;fontColor=#000000;strokeColor=#000000;fillColor=#00CCCC;" parent="1" vertex="1">
                    <mxGeometry x="813" y="-1536" width="150" height="144" as="geometry"/>
                </mxCell>
                <mxCell id="27" value="" style="rounded=0;whiteSpace=wrap;html=1;fontSize=43;fontColor=#000000;strokeColor=#000000;fillColor=#00CCCC;" parent="1" vertex="1">
                    <mxGeometry x="1008" y="-1536" width="150" height="144" as="geometry"/>
                </mxCell>
                <mxCell id="28" value="" style="rounded=0;whiteSpace=wrap;html=1;fontSize=43;fontColor=#000000;strokeColor=#000000;fillColor=#FFFFFF;" parent="1" vertex="1">
                    <mxGeometry x="42" y="-1392" width="150" height="48" as="geometry"/>
                </mxCell>
                <mxCell id="29" value="Nguyễn Văn A" style="text;html=1;strokeColor=none;fillColor=none;align=center;verticalAlign=middle;whiteSpace=wrap;rounded=0;fontSize=21;fontColor=#000000;fontStyle=0" parent="1" vertex="1">
                    <mxGeometry x="-24" y="-1383" width="276" height="30" as="geometry"/>
                </mxCell>
                <mxCell id="30" value="" style="rounded=0;whiteSpace=wrap;html=1;fontSize=43;fontColor=#000000;strokeColor=#000000;fillColor=#FFFFFF;" parent="1" vertex="1">
                    <mxGeometry x="234" y="-1392" width="150" height="48" as="geometry"/>
                </mxCell>
                <mxCell id="32" value="" style="rounded=0;whiteSpace=wrap;html=1;fontSize=43;fontColor=#000000;strokeColor=#000000;fillColor=#FFFFFF;" parent="1" vertex="1">
                    <mxGeometry x="430" y="-1392" width="150" height="48" as="geometry"/>
                </mxCell>
                <mxCell id="34" value="" style="rounded=0;whiteSpace=wrap;html=1;fontSize=43;fontColor=#000000;strokeColor=#000000;fillColor=#FFFFFF;" parent="1" vertex="1">
                    <mxGeometry x="624" y="-1390.5" width="150" height="48" as="geometry"/>
                </mxCell>
                <mxCell id="36" value="" style="rounded=0;whiteSpace=wrap;html=1;fontSize=43;fontColor=#000000;strokeColor=#000000;fillColor=#FFFFFF;" parent="1" vertex="1">
                    <mxGeometry x="813" y="-1392" width="150" height="48" as="geometry"/>
                </mxCell>
                <mxCell id="38" value="" style="rounded=0;whiteSpace=wrap;html=1;fontSize=43;fontColor=#000000;strokeColor=#000000;fillColor=#FFFFFF;" parent="1" vertex="1">
                    <mxGeometry x="1007" y="-1392" width="150" height="48" as="geometry"/>
                </mxCell>
                <mxCell id="40" value="" style="rounded=0;whiteSpace=wrap;html=1;fontSize=43;fontColor=#000000;strokeColor=#000000;fillColor=#00CCCC;" parent="1" vertex="1">
                    <mxGeometry x="41" y="-1296" width="150" height="144" as="geometry"/>
                </mxCell>
                <mxCell id="41" value="" style="rounded=0;whiteSpace=wrap;html=1;fontSize=43;fontColor=#000000;strokeColor=#000000;fillColor=#00CCCC;" parent="1" vertex="1">
                    <mxGeometry x="233" y="-1296" width="150" height="144" as="geometry"/>
                </mxCell>
                <mxCell id="42" value="" style="rounded=0;whiteSpace=wrap;html=1;fontSize=43;fontColor=#000000;strokeColor=#000000;fillColor=#00CCCC;" parent="1" vertex="1">
                    <mxGeometry x="431" y="-1296" width="150" height="144" as="geometry"/>
                </mxCell>
                <mxCell id="43" value="" style="rounded=0;whiteSpace=wrap;html=1;fontSize=43;fontColor=#000000;strokeColor=#000000;fillColor=#00CCCC;" parent="1" vertex="1">
                    <mxGeometry x="623" y="-1296" width="150" height="144" as="geometry"/>
                </mxCell>
                <mxCell id="44" value="" style="rounded=0;whiteSpace=wrap;html=1;fontSize=43;fontColor=#000000;strokeColor=#000000;fillColor=#00CCCC;" parent="1" vertex="1">
                    <mxGeometry x="812" y="-1296" width="150" height="144" as="geometry"/>
                </mxCell>
                <mxCell id="45" value="" style="rounded=0;whiteSpace=wrap;html=1;fontSize=43;fontColor=#000000;strokeColor=#000000;fillColor=#00CCCC;" parent="1" vertex="1">
                    <mxGeometry x="1007" y="-1296" width="150" height="144" as="geometry"/>
                </mxCell>
                <mxCell id="46" value="" style="rounded=0;whiteSpace=wrap;html=1;fontSize=43;fontColor=#000000;strokeColor=#000000;fillColor=#FFFFFF;" parent="1" vertex="1">
                    <mxGeometry x="41" y="-1152" width="150" height="48" as="geometry"/>
                </mxCell>
                <mxCell id="47" value="" style="rounded=0;whiteSpace=wrap;html=1;fontSize=43;fontColor=#000000;strokeColor=#000000;fillColor=#FFFFFF;" parent="1" vertex="1">
                    <mxGeometry x="233" y="-1152" width="150" height="48" as="geometry"/>
                </mxCell>
                <mxCell id="49" value="" style="rounded=0;whiteSpace=wrap;html=1;fontSize=43;fontColor=#000000;strokeColor=#000000;fillColor=#FFFFFF;" parent="1" vertex="1">
                    <mxGeometry x="429" y="-1152" width="150" height="48" as="geometry"/>
                </mxCell>
                <mxCell id="51" value="" style="rounded=0;whiteSpace=wrap;html=1;fontSize=43;fontColor=#000000;strokeColor=#000000;fillColor=#FFFFFF;" parent="1" vertex="1">
                    <mxGeometry x="623" y="-1150.5" width="150" height="48" as="geometry"/>
                </mxCell>
                <mxCell id="53" value="" style="rounded=0;whiteSpace=wrap;html=1;fontSize=43;fontColor=#000000;strokeColor=#000000;fillColor=#FFFFFF;" parent="1" vertex="1">
                    <mxGeometry x="812" y="-1152" width="150" height="48" as="geometry"/>
                </mxCell>
                <mxCell id="55" value="" style="rounded=0;whiteSpace=wrap;html=1;fontSize=43;fontColor=#000000;strokeColor=#000000;fillColor=#FFFFFF;" parent="1" vertex="1">
                    <mxGeometry x="1006" y="-1152" width="150" height="48" as="geometry"/>
                </mxCell>
                <mxCell id="61" value="" style="rounded=0;whiteSpace=wrap;html=1;fontSize=21;fontColor=none;strokeColor=#000000;fillColor=#99CCFF;noLabel=1;" parent="1" vertex="1">
                    <mxGeometry y="-1056" width="1176" height="324" as="geometry"/>
                </mxCell>
                <mxCell id="64" value="Our Address" style="swimlane;fontStyle=0;childLayout=stackLayout;horizontal=1;startSize=30;horizontalStack=0;resizeParent=1;resizeParentMax=0;resizeLast=0;collapsible=1;marginBottom=0;fontSize=21;fontColor=none;strokeColor=#000000;fillColor=#99CCFF;" parent="1" vertex="1">
                    <mxGeometry x="150" y="-972" width="360" height="120" as="geometry"/>
                </mxCell>
                <mxCell id="65" value="Item 1" style="text;strokeColor=none;fillColor=none;align=left;verticalAlign=middle;spacingLeft=4;spacingRight=4;overflow=hidden;points=[[0,0.5],[1,0.5]];portConstraint=eastwest;rotatable=0;fontSize=21;fontColor=none;" parent="64" vertex="1">
                    <mxGeometry y="30" width="360" height="30" as="geometry"/>
                </mxCell>
                <mxCell id="66" value="Item 2" style="text;strokeColor=none;fillColor=none;align=left;verticalAlign=middle;spacingLeft=4;spacingRight=4;overflow=hidden;points=[[0,0.5],[1,0.5]];portConstraint=eastwest;rotatable=0;fontSize=21;fontColor=none;" parent="64" vertex="1">
                    <mxGeometry y="60" width="360" height="30" as="geometry"/>
                </mxCell>
                <mxCell id="67" value="Item 3" style="text;strokeColor=none;fillColor=none;align=left;verticalAlign=middle;spacingLeft=4;spacingRight=4;overflow=hidden;points=[[0,0.5],[1,0.5]];portConstraint=eastwest;rotatable=0;fontSize=21;fontColor=none;" parent="64" vertex="1">
                    <mxGeometry y="90" width="360" height="30" as="geometry"/>
                </mxCell>
                <mxCell id="68" value="Nguyễn Văn A" style="text;html=1;strokeColor=none;fillColor=none;align=center;verticalAlign=middle;whiteSpace=wrap;rounded=0;fontSize=21;fontColor=#000000;fontStyle=0" parent="1" vertex="1">
                    <mxGeometry x="170" y="-1381.5" width="276" height="30" as="geometry"/>
                </mxCell>
                <mxCell id="69" value="Nguyễn Văn A" style="text;html=1;strokeColor=none;fillColor=none;align=center;verticalAlign=middle;whiteSpace=wrap;rounded=0;fontSize=21;fontColor=#000000;fontStyle=0" parent="1" vertex="1">
                    <mxGeometry x="366" y="-1381.5" width="276" height="30" as="geometry"/>
                </mxCell>
                <mxCell id="70" value="Nguyễn Văn A" style="text;html=1;strokeColor=none;fillColor=none;align=center;verticalAlign=middle;whiteSpace=wrap;rounded=0;fontSize=21;fontColor=#000000;fontStyle=0" parent="1" vertex="1">
                    <mxGeometry x="561" y="-1381.5" width="276" height="30" as="geometry"/>
                </mxCell>
                <mxCell id="71" value="Nguyễn Văn A" style="text;html=1;strokeColor=none;fillColor=none;align=center;verticalAlign=middle;whiteSpace=wrap;rounded=0;fontSize=21;fontColor=#000000;fontStyle=0" parent="1" vertex="1">
                    <mxGeometry x="749" y="-1381.5" width="276" height="30" as="geometry"/>
                </mxCell>
                <mxCell id="72" value="Nguyễn Văn A" style="text;html=1;strokeColor=none;fillColor=none;align=center;verticalAlign=middle;whiteSpace=wrap;rounded=0;fontSize=21;fontColor=#000000;fontStyle=0" parent="1" vertex="1">
                    <mxGeometry x="945" y="-1381.5" width="276" height="30" as="geometry"/>
                </mxCell>
                <mxCell id="73" value="Nguyễn Văn A" style="text;html=1;strokeColor=none;fillColor=none;align=center;verticalAlign=middle;whiteSpace=wrap;rounded=0;fontSize=21;fontColor=#000000;fontStyle=0" parent="1" vertex="1">
                    <mxGeometry x="-24" y="-1143.75" width="276" height="30" as="geometry"/>
                </mxCell>
                <mxCell id="74" value="Nguyễn Văn A" style="text;html=1;strokeColor=none;fillColor=none;align=center;verticalAlign=middle;whiteSpace=wrap;rounded=0;fontSize=21;fontColor=#000000;fontStyle=0" parent="1" vertex="1">
                    <mxGeometry x="170" y="-1142.25" width="276" height="30" as="geometry"/>
                </mxCell>
                <mxCell id="75" value="Nguyễn Văn A" style="text;html=1;strokeColor=none;fillColor=none;align=center;verticalAlign=middle;whiteSpace=wrap;rounded=0;fontSize=21;fontColor=#000000;fontStyle=0" parent="1" vertex="1">
                    <mxGeometry x="366" y="-1142.25" width="276" height="30" as="geometry"/>
                </mxCell>
                <mxCell id="76" value="Nguyễn Văn A" style="text;html=1;strokeColor=none;fillColor=none;align=center;verticalAlign=middle;whiteSpace=wrap;rounded=0;fontSize=21;fontColor=#000000;fontStyle=0" parent="1" vertex="1">
                    <mxGeometry x="574.5" y="-1141.5" width="249" height="30" as="geometry"/>
                </mxCell>
                <mxCell id="77" value="Nguyễn Văn A" style="text;html=1;strokeColor=none;fillColor=none;align=center;verticalAlign=middle;whiteSpace=wrap;rounded=0;fontSize=21;fontColor=#000000;fontStyle=0" parent="1" vertex="1">
                    <mxGeometry x="749" y="-1142.25" width="276" height="30" as="geometry"/>
                </mxCell>
                <mxCell id="78" value="Nguyễn Văn A" style="text;html=1;strokeColor=none;fillColor=none;align=center;verticalAlign=middle;whiteSpace=wrap;rounded=0;fontSize=21;fontColor=#000000;fontStyle=0" parent="1" vertex="1">
                    <mxGeometry x="945" y="-1142.25" width="276" height="30" as="geometry"/>
                </mxCell>
                <mxCell id="79" value="Img" style="text;html=1;strokeColor=none;fillColor=none;align=center;verticalAlign=middle;whiteSpace=wrap;rounded=0;fontSize=21;fontColor=none;" parent="1" vertex="1">
                    <mxGeometry x="86" y="-1479" width="60" height="30" as="geometry"/>
                </mxCell>
                <mxCell id="80" value="Img" style="text;html=1;strokeColor=none;fillColor=none;align=center;verticalAlign=middle;whiteSpace=wrap;rounded=0;fontSize=21;fontColor=none;" parent="1" vertex="1">
                    <mxGeometry x="84" y="-1239" width="60" height="30" as="geometry"/>
                </mxCell>
                <mxCell id="81" value="Img" style="text;html=1;strokeColor=none;fillColor=none;align=center;verticalAlign=middle;whiteSpace=wrap;rounded=0;fontSize=21;fontColor=none;" parent="1" vertex="1">
                    <mxGeometry x="288" y="-1479" width="60" height="30" as="geometry"/>
                </mxCell>
                <mxCell id="82" value="Img" style="text;html=1;strokeColor=none;fillColor=none;align=center;verticalAlign=middle;whiteSpace=wrap;rounded=0;fontSize=21;fontColor=none;" parent="1" vertex="1">
                    <mxGeometry x="286" y="-1239" width="60" height="30" as="geometry"/>
                </mxCell>
                <mxCell id="83" value="Img" style="text;html=1;strokeColor=none;fillColor=none;align=center;verticalAlign=middle;whiteSpace=wrap;rounded=0;fontSize=21;fontColor=none;" parent="1" vertex="1">
                    <mxGeometry x="470" y="-1479" width="60" height="30" as="geometry"/>
                </mxCell>
                <mxCell id="84" value="Img" style="text;html=1;strokeColor=none;fillColor=none;align=center;verticalAlign=middle;whiteSpace=wrap;rounded=0;fontSize=21;fontColor=none;" parent="1" vertex="1">
                    <mxGeometry x="468" y="-1239" width="60" height="30" as="geometry"/>
                </mxCell>
                <mxCell id="85" value="Img" style="text;html=1;strokeColor=none;fillColor=none;align=center;verticalAlign=middle;whiteSpace=wrap;rounded=0;fontSize=21;fontColor=none;" parent="1" vertex="1">
                    <mxGeometry x="672" y="-1479" width="60" height="30" as="geometry"/>
                </mxCell>
                <mxCell id="86" value="Img" style="text;html=1;strokeColor=none;fillColor=none;align=center;verticalAlign=middle;whiteSpace=wrap;rounded=0;fontSize=21;fontColor=none;" parent="1" vertex="1">
                    <mxGeometry x="670" y="-1239" width="60" height="30" as="geometry"/>
                </mxCell>
                <mxCell id="87" value="Img" style="text;html=1;strokeColor=none;fillColor=none;align=center;verticalAlign=middle;whiteSpace=wrap;rounded=0;fontSize=21;fontColor=none;" parent="1" vertex="1">
                    <mxGeometry x="866" y="-1479" width="60" height="30" as="geometry"/>
                </mxCell>
                <mxCell id="88" value="Img" style="text;html=1;strokeColor=none;fillColor=none;align=center;verticalAlign=middle;whiteSpace=wrap;rounded=0;fontSize=21;fontColor=none;" parent="1" vertex="1">
                    <mxGeometry x="864" y="-1239" width="60" height="30" as="geometry"/>
                </mxCell>
                <mxCell id="89" value="Img" style="text;html=1;strokeColor=none;fillColor=none;align=center;verticalAlign=middle;whiteSpace=wrap;rounded=0;fontSize=21;fontColor=none;" parent="1" vertex="1">
                    <mxGeometry x="1068" y="-1479" width="60" height="30" as="geometry"/>
                </mxCell>
                <mxCell id="90" value="Img" style="text;html=1;strokeColor=none;fillColor=none;align=center;verticalAlign=middle;whiteSpace=wrap;rounded=0;fontSize=21;fontColor=none;" parent="1" vertex="1">
                    <mxGeometry x="1066" y="-1239" width="60" height="30" as="geometry"/>
                </mxCell>
                <mxCell id="91" value="" style="rounded=0;whiteSpace=wrap;html=1;fontSize=21;fontColor=none;strokeColor=#000000;fillColor=#99CCFF;" parent="1" vertex="1">
                    <mxGeometry x="588" y="-942" width="60" height="66" as="geometry"/>
                </mxCell>
                <mxCell id="92" value="" style="rounded=0;whiteSpace=wrap;html=1;fontSize=21;fontColor=none;strokeColor=#000000;fillColor=#99CCFF;" parent="1" vertex="1">
                    <mxGeometry x="648" y="-942" width="60" height="66" as="geometry"/>
                </mxCell>
                <mxCell id="95" value="" style="rounded=0;whiteSpace=wrap;html=1;fontSize=21;fontColor=none;strokeColor=#000000;fillColor=#99CCFF;" parent="1" vertex="1">
                    <mxGeometry x="708" y="-942" width="60" height="66" as="geometry"/>
                </mxCell>
                <mxCell id="96" value="" style="rounded=0;whiteSpace=wrap;html=1;fontSize=21;fontColor=none;strokeColor=#000000;fillColor=#99CCFF;" parent="1" vertex="1">
                    <mxGeometry x="768" y="-942" width="60" height="66" as="geometry"/>
                </mxCell>
                <mxCell id="97" value="" style="rounded=0;whiteSpace=wrap;html=1;fontSize=21;fontColor=none;strokeColor=#000000;fillColor=#99CCFF;" parent="1" vertex="1">
                    <mxGeometry x="828" y="-942" width="60" height="66" as="geometry"/>
                </mxCell>
                <mxCell id="98" value="" style="rounded=0;whiteSpace=wrap;html=1;fontSize=21;fontColor=none;strokeColor=#000000;fillColor=#99CCFF;" parent="1" vertex="1">
                    <mxGeometry x="888" y="-942" width="60" height="66" as="geometry"/>
                </mxCell>
                <mxCell id="99" value="GG" style="text;html=1;strokeColor=none;fillColor=none;align=center;verticalAlign=middle;whiteSpace=wrap;rounded=0;fontSize=21;fontColor=none;" parent="1" vertex="1">
                    <mxGeometry x="588" y="-927" width="60" height="30" as="geometry"/>
                </mxCell>
                <mxCell id="100" value="FB" style="text;html=1;strokeColor=none;fillColor=none;align=center;verticalAlign=middle;whiteSpace=wrap;rounded=0;fontSize=21;fontColor=none;" parent="1" vertex="1">
                    <mxGeometry x="648" y="-927" width="60" height="30" as="geometry"/>
                </mxCell>
                <mxCell id="101" value="In" style="text;html=1;strokeColor=none;fillColor=none;align=center;verticalAlign=middle;whiteSpace=wrap;rounded=0;fontSize=21;fontColor=none;" parent="1" vertex="1">
                    <mxGeometry x="708" y="-927" width="60" height="30" as="geometry"/>
                </mxCell>
                <mxCell id="102" value="TW" style="text;html=1;strokeColor=none;fillColor=none;align=center;verticalAlign=middle;whiteSpace=wrap;rounded=0;fontSize=21;fontColor=none;" parent="1" vertex="1">
                    <mxGeometry x="768" y="-927" width="60" height="30" as="geometry"/>
                </mxCell>
                <mxCell id="103" value="YT" style="text;html=1;strokeColor=none;fillColor=none;align=center;verticalAlign=middle;whiteSpace=wrap;rounded=0;fontSize=21;fontColor=none;" parent="1" vertex="1">
                    <mxGeometry x="827" y="-927" width="60" height="30" as="geometry"/>
                </mxCell>
                <mxCell id="104" value="Mail" style="text;html=1;strokeColor=none;fillColor=none;align=center;verticalAlign=middle;whiteSpace=wrap;rounded=0;fontSize=21;fontColor=none;" parent="1" vertex="1">
                    <mxGeometry x="887" y="-927" width="60" height="30" as="geometry"/>
                </mxCell>
                <mxCell id="105" value="" style="endArrow=none;html=1;fontSize=21;fontColor=none;strokeColor=#000000;strokeWidth=6;entryX=0;entryY=0;entryDx=0;entryDy=0;exitX=0;exitY=1;exitDx=0;exitDy=0;" parent="1" source="61" target="59" edge="1">
                    <mxGeometry width="50" height="50" relative="1" as="geometry">
                        <mxPoint y="-1092" as="sourcePoint"/>
                        <mxPoint x="-34" y="-1790" as="targetPoint"/>
                    </mxGeometry>
                </mxCell>
                <mxCell id="107" value="" style="endArrow=none;html=1;fontSize=21;fontColor=none;strokeColor=#000000;strokeWidth=6;entryX=0;entryY=0;entryDx=0;entryDy=0;exitX=0;exitY=1;exitDx=0;exitDy=0;" parent="1" edge="1">
                    <mxGeometry width="50" height="50" relative="1" as="geometry">
                        <mxPoint x="1176.0000000000018" y="-731.9999999999995" as="sourcePoint"/>
                        <mxPoint x="1188" y="-1920" as="targetPoint"/>
                    </mxGeometry>
                </mxCell>
                <mxCell id="108" value="" style="rounded=0;whiteSpace=wrap;html=1;" vertex="1" parent="1">
                    <mxGeometry width="120" height="60" as="geometry"/>
                </mxCell>
                <mxCell id="ejF7LssClH1Wu44OlAL8-108" value="© Copyright 2022 Funix asm2" style="text;html=1;strokeColor=none;fillColor=none;align=center;verticalAlign=middle;whiteSpace=wrap;rounded=0;fontColor=#000000;" vertex="1" parent="1">
                    <mxGeometry x="410" y="-800" width="290" height="30" as="geometry"/>
                </mxCell>
            </root>
        </mxGraphModel>
    </diagram>
    <diagram id="gcwabvEP-WxTfs2yoHgj" name="Department">
        <mxGraphModel dx="3245" dy="4855" grid="1" gridSize="10" guides="1" tooltips="1" connect="1" arrows="1" fold="1" page="1" pageScale="1" pageWidth="1200" pageHeight="1920" background="#ffffff" math="0" shadow="0">
            <root>
                <mxCell id="G3lMTnTJut_8qwJf8aTg-0"/>
                <mxCell id="G3lMTnTJut_8qwJf8aTg-1" parent="G3lMTnTJut_8qwJf8aTg-0"/>
                <mxCell id="ErK_glY8x6Z9jU7SNQzr-0" value="" style="rounded=0;whiteSpace=wrap;html=1;fontSize=21;fontColor=none;strokeColor=#000000;fillColor=#6666FF;noLabel=1;" vertex="1" parent="G3lMTnTJut_8qwJf8aTg-1">
                    <mxGeometry x="3" y="-1920" width="1185" height="96" as="geometry"/>
                </mxCell>
                <mxCell id="ErK_glY8x6Z9jU7SNQzr-1" value="" style="endArrow=none;html=1;" edge="1" parent="G3lMTnTJut_8qwJf8aTg-1">
                    <mxGeometry width="50" height="50" relative="1" as="geometry">
                        <mxPoint y="80" as="sourcePoint"/>
                        <mxPoint x="849.9999999999995" y="80" as="targetPoint"/>
                    </mxGeometry>
                </mxCell>
                <mxCell id="ErK_glY8x6Z9jU7SNQzr-2" value="" style="shape=link;html=1;" edge="1" parent="G3lMTnTJut_8qwJf8aTg-1">
                    <mxGeometry width="100" relative="1" as="geometry">
                        <mxPoint x="260.00000000000045" y="180" as="sourcePoint"/>
                        <mxPoint x="849.9999999999995" y="80" as="targetPoint"/>
                    </mxGeometry>
                </mxCell>
                <mxCell id="ErK_glY8x6Z9jU7SNQzr-3" value="" style="endArrow=none;html=1;strokeWidth=6;fillColor=#fa6800;strokeColor=#000000;" edge="1" parent="G3lMTnTJut_8qwJf8aTg-1">
                    <mxGeometry width="50" height="50" relative="1" as="geometry">
                        <mxPoint x="12" y="-1824" as="sourcePoint"/>
                        <mxPoint x="1188.0000000000005" y="-1824" as="targetPoint"/>
                    </mxGeometry>
                </mxCell>
                <mxCell id="ErK_glY8x6Z9jU7SNQzr-4" value="sadsdasdasd" style="rounded=1;whiteSpace=wrap;html=1;strokeColor=#000000;fillColor=#FFFFFF;" vertex="1" parent="G3lMTnTJut_8qwJf8aTg-1">
                    <mxGeometry x="72" y="-1908" width="120" height="60" as="geometry"/>
                </mxCell>
                <mxCell id="ErK_glY8x6Z9jU7SNQzr-6" value="LOGO" style="text;html=1;strokeColor=none;fillColor=none;align=center;verticalAlign=middle;whiteSpace=wrap;rounded=0;fontColor=#000000;fontSize=24;" vertex="1" parent="G3lMTnTJut_8qwJf8aTg-1">
                    <mxGeometry x="102" y="-1893" width="60" height="30" as="geometry"/>
                </mxCell>
                <mxCell id="ErK_glY8x6Z9jU7SNQzr-7" value="sadsdasdasd" style="rounded=1;whiteSpace=wrap;html=1;strokeColor=#000000;fillColor=#FFFFFF;" vertex="1" parent="G3lMTnTJut_8qwJf8aTg-1">
                    <mxGeometry x="240" y="-1908" width="120" height="60" as="geometry"/>
                </mxCell>
                <mxCell id="ErK_glY8x6Z9jU7SNQzr-8" value="" style="rounded=1;whiteSpace=wrap;html=1;strokeColor=#000000;fillColor=#B3B3B3;" vertex="1" parent="G3lMTnTJut_8qwJf8aTg-1">
                    <mxGeometry x="384" y="-1908" width="120" height="60" as="geometry"/>
                </mxCell>
                <mxCell id="ErK_glY8x6Z9jU7SNQzr-9" value="sadsdasdasd" style="rounded=1;whiteSpace=wrap;html=1;strokeColor=#000000;fillColor=#FFFFFF;" vertex="1" parent="G3lMTnTJut_8qwJf8aTg-1">
                    <mxGeometry x="528" y="-1908" width="144" height="60" as="geometry"/>
                </mxCell>
                <mxCell id="ErK_glY8x6Z9jU7SNQzr-10" value="sadsdasdasd" style="rounded=1;whiteSpace=wrap;html=1;strokeColor=#000000;fillColor=#FFFFFF;" vertex="1" parent="G3lMTnTJut_8qwJf8aTg-1">
                    <mxGeometry x="768" y="-1800" width="240" height="60" as="geometry"/>
                </mxCell>
                <mxCell id="ErK_glY8x6Z9jU7SNQzr-11" value="" style="rounded=1;whiteSpace=wrap;html=1;strokeColor=#000000;fillColor=#00CCCC;" vertex="1" parent="G3lMTnTJut_8qwJf8aTg-1">
                    <mxGeometry x="1008" y="-1800" width="120" height="60" as="geometry"/>
                </mxCell>
                <mxCell id="ErK_glY8x6Z9jU7SNQzr-13" value="Nhân Viên" style="text;html=1;strokeColor=none;fillColor=none;align=center;verticalAlign=middle;whiteSpace=wrap;rounded=0;fontColor=#000000;fontSize=24;" vertex="1" parent="G3lMTnTJut_8qwJf8aTg-1">
                    <mxGeometry x="234" y="-1893" width="126" height="30" as="geometry"/>
                </mxCell>
                <mxCell id="ErK_glY8x6Z9jU7SNQzr-14" value="&amp;nbsp;Phòng ban" style="text;html=1;strokeColor=none;fillColor=none;align=center;verticalAlign=middle;whiteSpace=wrap;rounded=0;fontColor=#000000;fontSize=24;" vertex="1" parent="G3lMTnTJut_8qwJf8aTg-1">
                    <mxGeometry x="378" y="-1893" width="126" height="30" as="geometry"/>
                </mxCell>
                <mxCell id="ErK_glY8x6Z9jU7SNQzr-15" value="&amp;nbsp;Bảng lương" style="text;html=1;strokeColor=none;fillColor=none;align=center;verticalAlign=middle;whiteSpace=wrap;rounded=0;fontColor=#000000;fontSize=24;" vertex="1" parent="G3lMTnTJut_8qwJf8aTg-1">
                    <mxGeometry x="510" y="-1893" width="162" height="30" as="geometry"/>
                </mxCell>
                <mxCell id="ErK_glY8x6Z9jU7SNQzr-16" value="Nhập tên tìm kiếm" style="text;html=1;strokeColor=none;fillColor=none;align=center;verticalAlign=middle;whiteSpace=wrap;rounded=0;fontColor=#000000;fontSize=24;" vertex="1" parent="G3lMTnTJut_8qwJf8aTg-1">
                    <mxGeometry x="792" y="-1785" width="204" height="30" as="geometry"/>
                </mxCell>
                <mxCell id="ErK_glY8x6Z9jU7SNQzr-17" value="Search" style="text;html=1;strokeColor=none;fillColor=none;align=center;verticalAlign=middle;whiteSpace=wrap;rounded=0;fontColor=#FFFFFF;fontSize=24;" vertex="1" parent="G3lMTnTJut_8qwJf8aTg-1">
                    <mxGeometry x="987" y="-1785" width="162" height="30" as="geometry"/>
                </mxCell>
                <mxCell id="ErK_glY8x6Z9jU7SNQzr-44" value="" style="rounded=0;whiteSpace=wrap;html=1;fontSize=21;fontColor=none;strokeColor=#000000;fillColor=#99CCFF;noLabel=1;" vertex="1" parent="G3lMTnTJut_8qwJf8aTg-1">
                    <mxGeometry y="-1056" width="1176" height="324" as="geometry"/>
                </mxCell>
                <mxCell id="ErK_glY8x6Z9jU7SNQzr-45" value="Our Address" style="swimlane;fontStyle=0;childLayout=stackLayout;horizontal=1;startSize=30;horizontalStack=0;resizeParent=1;resizeParentMax=0;resizeLast=0;collapsible=1;marginBottom=0;fontSize=21;fontColor=none;strokeColor=#000000;fillColor=#99CCFF;" vertex="1" parent="G3lMTnTJut_8qwJf8aTg-1">
                    <mxGeometry x="150" y="-972" width="360" height="120" as="geometry"/>
                </mxCell>
                <mxCell id="ErK_glY8x6Z9jU7SNQzr-46" value="Item 1" style="text;strokeColor=none;fillColor=none;align=left;verticalAlign=middle;spacingLeft=4;spacingRight=4;overflow=hidden;points=[[0,0.5],[1,0.5]];portConstraint=eastwest;rotatable=0;fontSize=21;fontColor=none;" vertex="1" parent="ErK_glY8x6Z9jU7SNQzr-45">
                    <mxGeometry y="30" width="360" height="30" as="geometry"/>
                </mxCell>
                <mxCell id="ErK_glY8x6Z9jU7SNQzr-47" value="Item 2" style="text;strokeColor=none;fillColor=none;align=left;verticalAlign=middle;spacingLeft=4;spacingRight=4;overflow=hidden;points=[[0,0.5],[1,0.5]];portConstraint=eastwest;rotatable=0;fontSize=21;fontColor=none;" vertex="1" parent="ErK_glY8x6Z9jU7SNQzr-45">
                    <mxGeometry y="60" width="360" height="30" as="geometry"/>
                </mxCell>
                <mxCell id="ErK_glY8x6Z9jU7SNQzr-48" value="Item 3" style="text;strokeColor=none;fillColor=none;align=left;verticalAlign=middle;spacingLeft=4;spacingRight=4;overflow=hidden;points=[[0,0.5],[1,0.5]];portConstraint=eastwest;rotatable=0;fontSize=21;fontColor=none;" vertex="1" parent="ErK_glY8x6Z9jU7SNQzr-45">
                    <mxGeometry y="90" width="360" height="30" as="geometry"/>
                </mxCell>
                <mxCell id="ErK_glY8x6Z9jU7SNQzr-72" value="" style="rounded=0;whiteSpace=wrap;html=1;fontSize=21;fontColor=none;strokeColor=#000000;fillColor=#99CCFF;" vertex="1" parent="G3lMTnTJut_8qwJf8aTg-1">
                    <mxGeometry x="588" y="-942" width="60" height="66" as="geometry"/>
                </mxCell>
                <mxCell id="ErK_glY8x6Z9jU7SNQzr-73" value="" style="rounded=0;whiteSpace=wrap;html=1;fontSize=21;fontColor=none;strokeColor=#000000;fillColor=#99CCFF;" vertex="1" parent="G3lMTnTJut_8qwJf8aTg-1">
                    <mxGeometry x="648" y="-942" width="60" height="66" as="geometry"/>
                </mxCell>
                <mxCell id="ErK_glY8x6Z9jU7SNQzr-74" value="" style="rounded=0;whiteSpace=wrap;html=1;fontSize=21;fontColor=none;strokeColor=#000000;fillColor=#99CCFF;" vertex="1" parent="G3lMTnTJut_8qwJf8aTg-1">
                    <mxGeometry x="708" y="-942" width="60" height="66" as="geometry"/>
                </mxCell>
                <mxCell id="ErK_glY8x6Z9jU7SNQzr-75" value="" style="rounded=0;whiteSpace=wrap;html=1;fontSize=21;fontColor=none;strokeColor=#000000;fillColor=#99CCFF;" vertex="1" parent="G3lMTnTJut_8qwJf8aTg-1">
                    <mxGeometry x="768" y="-942" width="60" height="66" as="geometry"/>
                </mxCell>
                <mxCell id="ErK_glY8x6Z9jU7SNQzr-76" value="" style="rounded=0;whiteSpace=wrap;html=1;fontSize=21;fontColor=none;strokeColor=#000000;fillColor=#99CCFF;" vertex="1" parent="G3lMTnTJut_8qwJf8aTg-1">
                    <mxGeometry x="828" y="-942" width="60" height="66" as="geometry"/>
                </mxCell>
                <mxCell id="ErK_glY8x6Z9jU7SNQzr-77" value="" style="rounded=0;whiteSpace=wrap;html=1;fontSize=21;fontColor=none;strokeColor=#000000;fillColor=#99CCFF;" vertex="1" parent="G3lMTnTJut_8qwJf8aTg-1">
                    <mxGeometry x="888" y="-942" width="60" height="66" as="geometry"/>
                </mxCell>
                <mxCell id="ErK_glY8x6Z9jU7SNQzr-78" value="GG" style="text;html=1;strokeColor=none;fillColor=none;align=center;verticalAlign=middle;whiteSpace=wrap;rounded=0;fontSize=21;fontColor=none;" vertex="1" parent="G3lMTnTJut_8qwJf8aTg-1">
                    <mxGeometry x="588" y="-927" width="60" height="30" as="geometry"/>
                </mxCell>
                <mxCell id="ErK_glY8x6Z9jU7SNQzr-79" value="FB" style="text;html=1;strokeColor=none;fillColor=none;align=center;verticalAlign=middle;whiteSpace=wrap;rounded=0;fontSize=21;fontColor=none;" vertex="1" parent="G3lMTnTJut_8qwJf8aTg-1">
                    <mxGeometry x="648" y="-927" width="60" height="30" as="geometry"/>
                </mxCell>
                <mxCell id="ErK_glY8x6Z9jU7SNQzr-80" value="In" style="text;html=1;strokeColor=none;fillColor=none;align=center;verticalAlign=middle;whiteSpace=wrap;rounded=0;fontSize=21;fontColor=none;" vertex="1" parent="G3lMTnTJut_8qwJf8aTg-1">
                    <mxGeometry x="708" y="-927" width="60" height="30" as="geometry"/>
                </mxCell>
                <mxCell id="ErK_glY8x6Z9jU7SNQzr-81" value="TW" style="text;html=1;strokeColor=none;fillColor=none;align=center;verticalAlign=middle;whiteSpace=wrap;rounded=0;fontSize=21;fontColor=none;" vertex="1" parent="G3lMTnTJut_8qwJf8aTg-1">
                    <mxGeometry x="768" y="-927" width="60" height="30" as="geometry"/>
                </mxCell>
                <mxCell id="ErK_glY8x6Z9jU7SNQzr-82" value="YT" style="text;html=1;strokeColor=none;fillColor=none;align=center;verticalAlign=middle;whiteSpace=wrap;rounded=0;fontSize=21;fontColor=none;" vertex="1" parent="G3lMTnTJut_8qwJf8aTg-1">
                    <mxGeometry x="827" y="-927" width="60" height="30" as="geometry"/>
                </mxCell>
                <mxCell id="ErK_glY8x6Z9jU7SNQzr-83" value="Mail" style="text;html=1;strokeColor=none;fillColor=none;align=center;verticalAlign=middle;whiteSpace=wrap;rounded=0;fontSize=21;fontColor=none;" vertex="1" parent="G3lMTnTJut_8qwJf8aTg-1">
                    <mxGeometry x="887" y="-927" width="60" height="30" as="geometry"/>
                </mxCell>
                <mxCell id="ErK_glY8x6Z9jU7SNQzr-84" value="" style="endArrow=none;html=1;fontSize=21;fontColor=none;strokeColor=#000000;strokeWidth=6;entryX=0;entryY=0;entryDx=0;entryDy=0;exitX=0;exitY=1;exitDx=0;exitDy=0;" edge="1" parent="G3lMTnTJut_8qwJf8aTg-1" source="ErK_glY8x6Z9jU7SNQzr-44" target="ErK_glY8x6Z9jU7SNQzr-0">
                    <mxGeometry width="50" height="50" relative="1" as="geometry">
                        <mxPoint y="-1092" as="sourcePoint"/>
                        <mxPoint x="-34" y="-1790" as="targetPoint"/>
                    </mxGeometry>
                </mxCell>
                <mxCell id="ErK_glY8x6Z9jU7SNQzr-85" value="" style="endArrow=none;html=1;fontSize=21;fontColor=none;strokeColor=#000000;strokeWidth=6;entryX=0;entryY=0;entryDx=0;entryDy=0;exitX=0;exitY=1;exitDx=0;exitDy=0;" edge="1" parent="G3lMTnTJut_8qwJf8aTg-1">
                    <mxGeometry width="50" height="50" relative="1" as="geometry">
                        <mxPoint x="1176.0000000000023" y="-731.9999999999995" as="sourcePoint"/>
                        <mxPoint x="1188.0000000000005" y="-1920" as="targetPoint"/>
                    </mxGeometry>
                </mxCell>
                <mxCell id="MppnOLLCxkBxCa81rMJK-0" value="© Copyright 2022 Funix asm2" style="text;html=1;strokeColor=none;fillColor=none;align=center;verticalAlign=middle;whiteSpace=wrap;rounded=0;fontColor=#000000;" vertex="1" parent="G3lMTnTJut_8qwJf8aTg-1">
                    <mxGeometry x="410" y="-800" width="290" height="30" as="geometry"/>
                </mxCell>
                <mxCell id="XeaqA6tuFCjyPSRjMd1a-0" value="" style="rounded=1;whiteSpace=wrap;html=1;fontColor=#000000;fillColor=#FFFFFF;strokeColor=#000000;" vertex="1" parent="G3lMTnTJut_8qwJf8aTg-1">
                    <mxGeometry x="80" y="-1680" width="240" height="120" as="geometry"/>
                </mxCell>
                <mxCell id="XeaqA6tuFCjyPSRjMd1a-3" style="edgeStyle=none;html=1;fontColor=#000000;startArrow=none;" edge="1" parent="G3lMTnTJut_8qwJf8aTg-1" source="XeaqA6tuFCjyPSRjMd1a-4">
                    <mxGeometry relative="1" as="geometry">
                        <mxPoint x="950" y="-1285" as="targetPoint"/>
                    </mxGeometry>
                </mxCell>
                <mxCell id="XeaqA6tuFCjyPSRjMd1a-2" value="&lt;font style=&quot;font-size: 36px&quot;&gt;Sale&lt;/font&gt;" style="text;html=1;strokeColor=none;fillColor=none;align=center;verticalAlign=middle;whiteSpace=wrap;rounded=0;fontColor=#000000;strokeWidth=132;" vertex="1" parent="G3lMTnTJut_8qwJf8aTg-1">
                    <mxGeometry x="100" y="-1660" width="60" height="30" as="geometry"/>
                </mxCell>
                <mxCell id="XeaqA6tuFCjyPSRjMd1a-4" value="&amp;nbsp;Số lượng nhân viên: x" style="text;html=1;strokeColor=none;fillColor=none;align=center;verticalAlign=middle;whiteSpace=wrap;rounded=0;fontSize=22;fontColor=#000000;" vertex="1" parent="G3lMTnTJut_8qwJf8aTg-1">
                    <mxGeometry y="-1610" width="400" height="30" as="geometry"/>
                </mxCell>
                <mxCell id="XeaqA6tuFCjyPSRjMd1a-5" value="" style="edgeStyle=none;html=1;fontColor=#000000;endArrow=none;" edge="1" parent="G3lMTnTJut_8qwJf8aTg-1" source="XeaqA6tuFCjyPSRjMd1a-2" target="XeaqA6tuFCjyPSRjMd1a-4">
                    <mxGeometry relative="1" as="geometry">
                        <mxPoint x="950" y="-1285" as="targetPoint"/>
                        <mxPoint x="160" y="-1631.8292682926826" as="sourcePoint"/>
                    </mxGeometry>
                </mxCell>
                <mxCell id="XeaqA6tuFCjyPSRjMd1a-6" value="" style="rounded=1;whiteSpace=wrap;html=1;fontColor=#000000;fillColor=#FFFFFF;strokeColor=#000000;" vertex="1" parent="G3lMTnTJut_8qwJf8aTg-1">
                    <mxGeometry x="435" y="-1680" width="240" height="120" as="geometry"/>
                </mxCell>
                <mxCell id="XeaqA6tuFCjyPSRjMd1a-7" value="&lt;font style=&quot;font-size: 36px&quot;&gt;HR&lt;/font&gt;" style="text;html=1;strokeColor=none;fillColor=none;align=center;verticalAlign=middle;whiteSpace=wrap;rounded=0;fontColor=#000000;strokeWidth=132;" vertex="1" parent="G3lMTnTJut_8qwJf8aTg-1">
                    <mxGeometry x="455" y="-1660" width="60" height="30" as="geometry"/>
                </mxCell>
                <mxCell id="XeaqA6tuFCjyPSRjMd1a-8" value="&amp;nbsp;Số lượng nhân viên: x" style="text;html=1;strokeColor=none;fillColor=none;align=center;verticalAlign=middle;whiteSpace=wrap;rounded=0;fontSize=22;fontColor=#000000;" vertex="1" parent="G3lMTnTJut_8qwJf8aTg-1">
                    <mxGeometry x="355" y="-1610" width="400" height="30" as="geometry"/>
                </mxCell>
                <mxCell id="XeaqA6tuFCjyPSRjMd1a-9" value="" style="edgeStyle=none;html=1;fontColor=#000000;endArrow=none;" edge="1" parent="G3lMTnTJut_8qwJf8aTg-1" source="XeaqA6tuFCjyPSRjMd1a-7" target="XeaqA6tuFCjyPSRjMd1a-8">
                    <mxGeometry relative="1" as="geometry">
                        <mxPoint x="1305" y="-1285" as="targetPoint"/>
                        <mxPoint x="515" y="-1631.8292682926826" as="sourcePoint"/>
                    </mxGeometry>
                </mxCell>
                <mxCell id="XeaqA6tuFCjyPSRjMd1a-10" value="" style="rounded=1;whiteSpace=wrap;html=1;fontColor=#000000;fillColor=#FFFFFF;strokeColor=#000000;" vertex="1" parent="G3lMTnTJut_8qwJf8aTg-1">
                    <mxGeometry x="797" y="-1680" width="240" height="120" as="geometry"/>
                </mxCell>
                <mxCell id="XeaqA6tuFCjyPSRjMd1a-11" value="&lt;font style=&quot;font-size: 36px&quot;&gt;Marketing&lt;/font&gt;" style="text;html=1;strokeColor=none;fillColor=none;align=center;verticalAlign=middle;whiteSpace=wrap;rounded=0;fontColor=#000000;strokeWidth=132;" vertex="1" parent="G3lMTnTJut_8qwJf8aTg-1">
                    <mxGeometry x="817" y="-1660" width="60" height="30" as="geometry"/>
                </mxCell>
                <mxCell id="XeaqA6tuFCjyPSRjMd1a-12" value="&amp;nbsp;Số lượng nhân viên: x" style="text;html=1;strokeColor=none;fillColor=none;align=center;verticalAlign=middle;whiteSpace=wrap;rounded=0;fontSize=22;fontColor=#000000;" vertex="1" parent="G3lMTnTJut_8qwJf8aTg-1">
                    <mxGeometry x="717" y="-1610" width="400" height="30" as="geometry"/>
                </mxCell>
                <mxCell id="XeaqA6tuFCjyPSRjMd1a-13" value="" style="edgeStyle=none;html=1;fontColor=#000000;endArrow=none;" edge="1" parent="G3lMTnTJut_8qwJf8aTg-1" source="XeaqA6tuFCjyPSRjMd1a-11" target="XeaqA6tuFCjyPSRjMd1a-12">
                    <mxGeometry relative="1" as="geometry">
                        <mxPoint x="1667" y="-1285" as="targetPoint"/>
                        <mxPoint x="877" y="-1631.8292682926826" as="sourcePoint"/>
                    </mxGeometry>
                </mxCell>
                <mxCell id="XeaqA6tuFCjyPSRjMd1a-14" value="" style="rounded=1;whiteSpace=wrap;html=1;fontColor=#000000;fillColor=#FFFFFF;strokeColor=#000000;" vertex="1" parent="G3lMTnTJut_8qwJf8aTg-1">
                    <mxGeometry x="80" y="-1480" width="240" height="120" as="geometry"/>
                </mxCell>
                <mxCell id="XeaqA6tuFCjyPSRjMd1a-15" value="&lt;font style=&quot;font-size: 36px&quot;&gt;IT&lt;/font&gt;" style="text;html=1;strokeColor=none;fillColor=none;align=center;verticalAlign=middle;whiteSpace=wrap;rounded=0;fontColor=#000000;strokeWidth=132;" vertex="1" parent="G3lMTnTJut_8qwJf8aTg-1">
                    <mxGeometry x="100" y="-1460" width="60" height="30" as="geometry"/>
                </mxCell>
                <mxCell id="XeaqA6tuFCjyPSRjMd1a-16" value="&amp;nbsp;Số lượng nhân viên: x" style="text;html=1;strokeColor=none;fillColor=none;align=center;verticalAlign=middle;whiteSpace=wrap;rounded=0;fontSize=22;fontColor=#000000;" vertex="1" parent="G3lMTnTJut_8qwJf8aTg-1">
                    <mxGeometry y="-1410" width="400" height="30" as="geometry"/>
                </mxCell>
                <mxCell id="XeaqA6tuFCjyPSRjMd1a-17" value="" style="edgeStyle=none;html=1;fontColor=#000000;endArrow=none;" edge="1" parent="G3lMTnTJut_8qwJf8aTg-1" source="XeaqA6tuFCjyPSRjMd1a-15" target="XeaqA6tuFCjyPSRjMd1a-16">
                    <mxGeometry relative="1" as="geometry">
                        <mxPoint x="950" y="-1085" as="targetPoint"/>
                        <mxPoint x="160" y="-1431.8292682926826" as="sourcePoint"/>
                    </mxGeometry>
                </mxCell>
                <mxCell id="XeaqA6tuFCjyPSRjMd1a-22" value="" style="edgeStyle=none;html=1;fontSize=22;fontColor=#000000;" edge="1" parent="G3lMTnTJut_8qwJf8aTg-1" source="XeaqA6tuFCjyPSRjMd1a-18" target="XeaqA6tuFCjyPSRjMd1a-16">
                    <mxGeometry relative="1" as="geometry"/>
                </mxCell>
                <mxCell id="XeaqA6tuFCjyPSRjMd1a-18" value="" style="rounded=1;whiteSpace=wrap;html=1;fontColor=#000000;fillColor=#FFFFFF;strokeColor=#000000;" vertex="1" parent="G3lMTnTJut_8qwJf8aTg-1">
                    <mxGeometry x="440" y="-1480" width="240" height="120" as="geometry"/>
                </mxCell>
                <mxCell id="XeaqA6tuFCjyPSRjMd1a-19" value="&lt;font style=&quot;font-size: 36px&quot;&gt;Finanace&lt;/font&gt;" style="text;html=1;strokeColor=none;fillColor=none;align=center;verticalAlign=middle;whiteSpace=wrap;rounded=0;fontColor=#000000;strokeWidth=132;" vertex="1" parent="G3lMTnTJut_8qwJf8aTg-1">
                    <mxGeometry x="504" y="-1460" width="60" height="30" as="geometry"/>
                </mxCell>
                <mxCell id="XeaqA6tuFCjyPSRjMd1a-20" value="&amp;nbsp;Số lượng nhân viên: x" style="text;html=1;strokeColor=none;fillColor=none;align=center;verticalAlign=middle;whiteSpace=wrap;rounded=0;fontSize=22;fontColor=#000000;" vertex="1" parent="G3lMTnTJut_8qwJf8aTg-1">
                    <mxGeometry x="360" y="-1410" width="400" height="30" as="geometry"/>
                </mxCell>
                <mxCell id="XeaqA6tuFCjyPSRjMd1a-21" value="" style="edgeStyle=none;html=1;fontColor=#000000;endArrow=none;" edge="1" parent="G3lMTnTJut_8qwJf8aTg-1" source="XeaqA6tuFCjyPSRjMd1a-19" target="XeaqA6tuFCjyPSRjMd1a-20">
                    <mxGeometry relative="1" as="geometry">
                        <mxPoint x="1310" y="-1085" as="targetPoint"/>
                        <mxPoint x="520" y="-1431.8292682926826" as="sourcePoint"/>
                    </mxGeometry>
                </mxCell>
            </root>
        </mxGraphModel>
    </diagram>
</mxfile>